<svg xmlns="http://www.w3.org/2000/svg" version="1.1" xmlns:xlink="http://www.w3.org/1999/xlink" xmlns:svgjs="http://svgjs.dev/svgjs" width="1000" height="1000" viewBox="0 0 1000 1000"><rect width="1000" height="1000" fill="#ffffff"></rect><g transform="matrix(0.7,0,0,0.7,149.65969137892154,215.45000000000005)"><svg viewBox="0 0 344 280" data-background-color="#ffffff" preserveAspectRatio="xMidYMid meet" height="813" width="1000" xmlns="http://www.w3.org/2000/svg" xmlns:xlink="http://www.w3.org/1999/xlink"><g id="tight-bounds" transform="matrix(1,0,0,1,0.16723737950141526,0)"><svg viewBox="0 0 343.66552524099717 280" height="280" width="343.66552524099717"><g><svg viewBox="0 0 395.52 322.24820898848986" height="280" width="343.66552524099717"><g><svg viewBox="0 0 395.52 322.24820898848986" height="322.24820898848986" width="395.52"><g id="textblocktransform"><svg viewBox="0 0 395.52 322.24820898848986" height="322.24820898848986" width="395.52" id="textblock"><g><svg viewBox="0 0 395.52 278.2696" height="278.2696" width="395.52"><g transform="matrix(1,0,0,1,144.82094701387402,73.54602628064397)"><svg viewBox="0 0 105.87810597225193 131.17754743871208" height="131.17754743871208" width="105.87810597225193"><g><svg xmlns="http://www.w3.org/2000/svg" xmlns:xlink="http://www.w3.org/1999/xlink" version="1.1" x="0" y="0" viewBox="13.055998802185059 3.8540022373199463 73.9739990234375 91.64999389648438" enable-background="new 0 0 100 100" xml:space="preserve" height="131.17754743871208" width="105.87810597225193" class="icon-o-0" data-fill-palette-color="accent" id="o-0"><g fill="#ff5858" data-fill-palette-color="accent"><path fill="none" d="M49.955 40.819c6.486 0 11.826-7.164 12.517-16.367 0.087-0.595 0.134-1.203 0.141-1.821l-2.023 2.326c1.117-2.473-2.86-8.769-2.86-8.769-6.703 4.85-16.671 0-16.671 0-3.007 1.187-1.583 9.646-1.583 9.646-0.75-0.522-1.438-0.796-2-0.937C38.302 33.889 43.574 40.819 49.955 40.819z"></path><g fill="#ff5858" data-fill-palette-color="accent"><path fill="none" d="M23.224 51.659h-6.299c-1.941 0-3.515 1.556-3.515 3.473l7.096 32.391c0 1.92 1.573 3.474 3.514 3.474h52.045c1.941 0 3.514-1.557 3.514-3.474l7.095-32.391c0-1.917-1.572-3.472-3.513-3.472h-6.145M50.043 73.526c-1.042 0-1.886-0.845-1.886-1.885 0-1.043 0.844-1.888 1.886-1.888s1.885 0.845 1.885 1.888C51.928 72.681 51.084 73.526 50.043 73.526z"></path><path fill="none" d="M55.097 51.659h-3.455"></path><path fill="#ff5858" d="M61.563 40.629c-0.038 1.726-3.054 6.313-6.049 10.453h21.227C73.913 45.337 68.242 41.24 61.563 40.629z" data-fill-palette-color="accent"></path><path fill="#ff5858" d="M51.407 48.281c1.323-0.684 2.35-2.109 2.35-3.558 0 0-1.97 0.871-3.978 0.871-2.008 0-3.979-0.871-3.979-0.871 0 1.448 1.026 2.872 2.351 3.558l-0.196 2.802h3.646L51.407 48.281z" data-fill-palette-color="accent"></path><path fill="#ff5858" d="M38.68 40.629c-6.681 0.61-12.35 4.707-15.181 10.453h20.702C41.47 46.942 38.718 42.355 38.68 40.629z" data-fill-palette-color="accent"></path><g fill="#ff5858" data-fill-palette-color="accent"><circle fill="#ff5858" cx="50.043" cy="71.639" r="1.9" data-fill-palette-color="accent"></circle><path fill="#ff5858" d="M79.831 92.466H20.255c-0.837 0-1.518 0.681-1.518 1.519s0.68 1.519 1.518 1.519h59.576c0.839 0 1.518-0.681 1.518-1.519S80.669 92.466 79.831 92.466z" data-fill-palette-color="accent"></path></g><path fill="#ff5858" d="M55.097 51.659c0.138-0.191 0.277-0.383 0.417-0.575h-3.912l0.04 0.575H55.097z" data-fill-palette-color="accent"></path><path fill="#ff5858" d="M47.914 51.659l0.042-0.575h-3.754c0.127 0.194 0.254 0.384 0.382 0.575H47.914z" data-fill-palette-color="accent"></path><path fill="#ff5858" d="M23.699 91.57h52.687c1.96 0 3.548-1.588 3.548-3.548l7.096-33.391c0-1.959-1.587-3.548-3.548-3.548h-6.74c0.096 0.189 0.188 0.381 0.275 0.575h6.146c1.94 0 3.514 1.556 3.514 3.473l-7.098 32.391c0 1.92-1.57 3.474-3.514 3.474H24.02c-1.941 0-3.514-1.557-3.514-3.474l-7.097-32.391c0-1.919 1.574-3.473 3.515-3.473h6.3c0.087-0.194 0.182-0.386 0.275-0.575h-6.896c-1.959 0-3.547 1.589-3.547 3.548l7.095 33.391C20.15 89.982 21.739 91.57 23.699 91.57z" data-fill-palette-color="accent"></path><path fill="#ff5858" d="M44.583 51.659c-0.127-0.191-0.255-0.382-0.382-0.575H23.499c-0.094 0.189-0.188 0.381-0.275 0.575H44.583z" data-fill-palette-color="accent"></path><polygon fill="#ff5858" points="51.642,51.659 51.602,51.083 47.954,51.083 47.914,51.659   " data-fill-palette-color="accent"></polygon><path fill="#ff5858" d="M77.017 51.659c-0.088-0.194-0.18-0.386-0.275-0.575H55.514c-0.14 0.193-0.279 0.386-0.417 0.575H77.017z" data-fill-palette-color="accent"></path></g><g fill="#ff5858" data-fill-palette-color="accent"><g fill="#ff5858" data-fill-palette-color="accent"><path fill="#ff5858" d="M36.011 23.006h0.008 0.322c-0.001 0.099-0.005 0.198-0.005 0.298 0 0.303 0.011 0.602 0.028 0.898 0.026 0.434 0.067 0.863 0.128 1.287 0.01 0.13 0.021 0.257 0.032 0.386 0.863 9.758 6.571 17.297 13.489 17.297 7.005 0 12.772-7.736 13.518-17.678 0.104-0.713 0.158-1.445 0.158-2.189 0-0.1-0.003-0.199-0.006-0.297h0.381 0.009c1.129 0 3.831-0.916 3.831-2.044 0-1.13-2.702-2.044-3.831-2.044h-0.009c-0.752-5.202-4.104-10.308-8.898-12.582l-0.275 3.654-0.195 2.359-0.355-0.007 0.185-2.629 0.259-3.673 0.052-0.756-2.24-0.096-0.003 0.09-0.121 3.862-0.098 3.117-0.007 0.184-0.178 5.723H51.8l0.249-9.095 0.107-3.884 0.037-1.333H47.28l0.041 1.469 0.104 3.846 0.247 8.998h-0.388l-0.179-5.728-0.006-0.184-0.094-2.995-0.119-3.817-0.008-0.256-2.329 0.1 0.076 1.089 0.252 3.588 0.166 2.381-0.356 0.007-0.175-2.104L44.245 6.68c-4.455 2.435-7.509 7.284-8.225 12.239h-0.008c-1.129 0-3.831 0.915-3.831 2.044C32.181 22.092 34.882 23.006 36.011 23.006zM39.758 23.006h20.158c0.365 1.173 0.519 2.288 0.181 3.034l1.919-2.204c-0.007 0.583-0.053 1.162-0.133 1.724C61.228 34.29 56.165 41.08 50.014 41.08c-6.051 0-11.049-6.572-11.835-15.096 0.533 0.133 1.186 0.392 1.897 0.888C40.076 26.872 39.769 25.042 39.758 23.006z" data-fill-palette-color="accent"></path></g></g></g></svg></g></svg></g><path d="M70.328 182.288L70.93 184.335 68.483 185.054 66.447 178.123 68.893 177.404 69.492 179.442 91.094 173.094 90.495 171.056 92.942 170.337 94.978 177.268 92.532 177.987 91.93 175.94ZM109.921 204.989L118.771 215.864 116.793 217.473 113.311 213.194 93.87 229.016 91.991 226.707 111.432 210.885 107.943 206.599ZM128.003 258.074L146.558 236.687 150.485 238.792 142.95 266.085 140.326 264.679 142.059 258.379 134.913 254.55 130.627 259.48ZM142.739 255.85L146.934 240.649 136.599 252.56ZM197.295 272.612V272.612L198.942 250.366 201.911 250.586 200.263 272.832C200.123 274.726 199.415 276.142 198.138 277.083 196.861 278.023 195.028 278.404 192.64 278.228 190.258 278.051 188.495 277.403 187.351 276.284 186.214 275.165 185.715 273.658 185.855 271.765V271.765L187.503 249.519 190.471 249.739 188.824 271.985C188.657 274.241 189.985 275.474 192.809 275.683 195.632 275.892 197.128 274.868 197.295 272.612ZM244.058 256.575L248.636 268.465 245.858 269.535 235.935 243.764 238.713 242.694 243.141 254.195 250.948 251.19 246.519 239.688 249.297 238.619 259.22 264.39 256.442 265.459 251.864 253.569ZM298.106 232.341L299.612 230.83 301.418 232.631 296.317 237.746 294.511 235.945 296.011 234.442 280.069 218.542 278.569 220.046 276.763 218.245 281.864 213.13 283.67 214.931 282.164 216.442ZM328.287 188.065V188.065L325.698 194.393 300.139 183.934 302.729 177.606C303.566 175.562 304.686 174.204 306.089 173.535 307.496 172.874 309.062 172.897 310.789 173.603V173.603L325.345 179.56C327.096 180.276 328.238 181.355 328.771 182.795 329.298 184.233 329.136 185.989 328.287 188.065ZM324.222 182.306V182.306L309.665 176.349C308.827 176.006 307.968 176.016 307.091 176.379 306.207 176.739 305.54 177.47 305.089 178.572V178.572L303.627 182.145 324.465 190.672 325.927 187.099C326.378 185.997 326.421 185.01 326.055 184.139 325.696 183.27 325.085 182.659 324.222 182.306Z" fill="#8d021f" data-fill-palette-color="primary"></path><path d="M91.939 102.187L92.538 100.149 94.985 100.868 92.951 107.789 90.504 107.071 91.103 105.033 69.501 98.686 68.902 100.724 66.456 100.005 68.489 93.083 70.936 93.802 70.337 95.84ZM88.512 55.706L97.363 44.831 99.341 46.441 95.858 50.72 115.299 66.542 113.42 68.851 93.979 53.029 90.49 57.316ZM141.06 44.391L133.524 17.098 137.451 14.994 155.998 36.385 153.383 37.787 149.096 32.856 141.942 36.691 143.684 42.985ZM147.367 30.89L137.031 18.979 141.227 34.18ZM198.562 22.466V22.466L196.915 0.22 199.884 0 201.531 22.246C201.671 24.139 201.179 25.645 200.055 26.763 198.93 27.881 197.174 28.529 194.786 28.705 192.398 28.882 190.558 28.501 189.268 27.562 187.978 26.622 187.263 25.206 187.123 23.313V23.313L185.476 1.067 188.444 0.847 190.092 23.093C190.259 25.349 191.754 26.373 194.578 26.164 197.401 25.955 198.73 24.722 198.562 22.466ZM243.304 23.543L238.725 35.433 235.947 34.363 245.871 8.592 248.649 9.662 244.22 21.163 252.027 24.169 256.455 12.668 259.233 13.738 249.31 39.508 246.532 38.439 251.11 26.549ZM282.177 61.686L283.677 63.19 281.871 64.991 276.777 59.883 278.582 58.082 280.082 59.586 296.023 43.686 294.524 42.183 296.329 40.382 301.424 45.489 299.618 47.29 298.119 45.787ZM302.742 100.523V100.523L300.152 94.195 325.711 83.737 328.3 90.065C329.137 92.11 329.287 93.864 328.749 95.328 328.215 96.783 327.082 97.865 325.349 98.574V98.574L310.802 104.526C309.051 105.243 307.48 105.274 306.091 104.62 304.707 103.964 303.591 102.598 302.742 100.523ZM309.674 101.771V101.771L324.222 95.819C325.06 95.475 325.67 94.869 326.05 93.998 326.428 93.122 326.391 92.133 325.94 91.031V91.031L324.478 87.458 303.64 95.985 305.102 99.557C305.553 100.659 306.211 101.394 307.076 101.762 307.945 102.121 308.811 102.124 309.674 101.771Z" fill="#8d021f" data-fill-palette-color="primary"></path><path d="M62.953 139.064C62.953 133.238 67.676 128.515 73.502 128.515 79.328 128.515 84.051 133.238 84.051 139.064 84.051 144.89 79.328 149.613 73.502 149.613 67.676 149.613 62.953 144.89 62.953 139.064ZM311.469 139.064C311.469 133.238 316.192 128.515 322.018 128.515 327.844 128.515 332.567 133.238 332.567 139.064 332.567 144.89 327.844 149.613 322.018 149.613 316.192 149.613 311.469 144.89 311.469 139.064Z" fill="#8d021f" data-fill-palette-color="primary"></path></svg></g><g transform="matrix(1,0,0,1,0,295.46666128000004)"><svg viewBox="0 0 395.52 26.781547708489853" height="26.781547708489853" width="395.52"><g transform="matrix(1,0,0,1,0,0)"><svg width="395.52" viewBox="2.3499999046325684 -35.650001525878906 532.3600463867188 36.05000305175781" height="26.781547708489853" data-palette-color="#ff908b"><path d="M15.55 0.4Q7.3 0.4 2.35-4.05L2.35-4.05 3.95-7.2Q6.55-5 9.28-4.05 12-3.1 15.6-3.1L15.6-3.1Q19.85-3.1 22.15-4.75 24.45-6.4 24.45-9.4L24.45-9.4Q24.45-11.15 23.35-12.25 22.25-13.35 20.45-14 18.65-14.65 15.6-15.35L15.6-15.35Q11.5-16.3 8.88-17.35 6.25-18.4 4.63-20.35 3-22.3 3-25.45L3-25.45Q3-28.45 4.58-30.78 6.15-33.1 9.08-34.38 12-35.65 15.85-35.65L15.85-35.65Q19.5-35.65 22.68-34.5 25.85-33.35 28.05-31.2L28.05-31.2 26.5-28.05Q24-30.2 21.43-31.18 18.85-32.15 15.85-32.15L15.85-32.15Q11.75-32.15 9.43-30.43 7.1-28.7 7.1-25.6L7.1-25.6Q7.1-22.95 9.15-21.6 11.2-20.25 15.35-19.3L15.35-19.3Q19.9-18.2 22.5-17.28 25.1-16.35 26.83-14.5 28.55-12.65 28.55-9.55L28.55-9.55Q28.55-6.55 26.98-4.3 25.4-2.05 22.45-0.83 19.5 0.4 15.55 0.4L15.55 0.4ZM49.95 0.4Q45.05 0.4 41.42-1.8 37.8-4 35.85-8.05 33.9-12.1 33.9-17.6L33.9-17.6Q33.9-23.15 35.82-27.23 37.75-31.3 41.37-33.48 45-35.65 49.95-35.65L49.95-35.65Q54.9-35.65 58.52-33.48 62.15-31.3 64.07-27.23 66-23.15 66-17.65L66-17.65Q66-12.15 64.05-8.08 62.1-4 58.47-1.8 54.85 0.4 49.95 0.4L49.95 0.4ZM49.95-3.1Q55.55-3.1 58.67-6.88 61.8-10.65 61.8-17.65L61.8-17.65Q61.8-24.65 58.7-28.4 55.6-32.15 49.95-32.15L49.95-32.15Q44.35-32.15 41.22-28.38 38.1-24.6 38.1-17.65L38.1-17.65Q38.1-10.7 41.22-6.9 44.35-3.1 49.95-3.1L49.95-3.1ZM77.45 0L73.39 0 73.39-35.25 95.2-35.25 95.2-31.8 77.45-31.8 77.45-19.65 94.2-19.65 94.2-16.2 77.45-16.2 77.45 0ZM113.99 0L109.84 0 109.84-31.75 97.59-31.75 97.59-35.25 126.29-35.25 126.29-31.75 113.99-31.75 113.99 0ZM167.14-5.75L177.24-35.25 181.24-35.25 168.94 0 165.44 0 155.39-28.85 145.34 0 141.89 0 129.54-35.25 133.69-35.25 143.69-5.8 153.94-35.25 157.04-35.2 167.14-5.75ZM215.24 0L211.09 0 207.19-9.05 188.79-9.05 184.89 0 180.69 0 196.19-35.25 199.74-35.25 215.24 0ZM197.99-30.5L190.24-12.45 205.74-12.45 197.99-30.5ZM242.09-11.5L248.24 0 243.74 0 237.74-11.3Q236.64-13.35 235.16-14.13 233.69-14.9 231.14-14.9L231.14-14.9 224.54-14.9 224.54 0 220.49 0 220.49-35.25 234.99-35.25Q240.74-35.25 243.76-32.7 246.79-30.15 246.79-25.2L246.79-25.2Q246.79-21.1 244.46-18.57 242.14-16.05 237.84-15.4L237.84-15.4Q239.19-15 240.21-14.05 241.24-13.1 242.09-11.5L242.09-11.5ZM224.54-18.3L234.64-18.3Q238.74-18.3 240.76-20 242.79-21.7 242.79-25.15L242.79-25.15Q242.79-28.55 240.79-30.2 238.79-31.85 234.64-31.85L234.64-31.85 224.54-31.85 224.54-18.3ZM277.08 0L254.78 0 254.78-35.25 277.08-35.25 277.08-31.85 258.83-31.85 258.83-19.6 276.08-19.6 276.08-16.2 258.83-16.2 258.83-3.4 277.08-3.4 277.08 0ZM319.08 0L296.78 0 296.78-35.25 319.08-35.25 319.08-31.85 300.83-31.85 300.83-19.6 318.08-19.6 318.08-16.2 300.83-16.2 300.83-3.4 319.08-3.4 319.08 0ZM350.28-6.9L350.28-35.25 354.13-35.25 354.13 0 350.98 0 329.73-28.35 329.73 0 325.88 0 325.88-35.25 329.03-35.25 350.28-6.9ZM378.22-18.35L390.72-18.35 390.72-2.05Q388.62-0.95 385.25-0.28 381.87 0.4 378.42 0.4L378.42 0.4Q373.17 0.4 369.37-1.75 365.57-3.9 363.55-7.95 361.52-12 361.52-17.65L361.52-17.65Q361.52-23.25 363.52-27.3 365.52-31.35 369.27-33.5 373.02-35.65 378.12-35.65L378.12-35.65Q381.82-35.65 384.92-34.52 388.02-33.4 390.22-31.2L390.22-31.2 388.67-28.05Q386.12-30.25 383.65-31.2 381.17-32.15 378.12-32.15L378.12-32.15Q372.17-32.15 368.97-28.4 365.77-24.65 365.77-17.65L365.77-17.65Q365.77-10.5 369.02-6.78 372.27-3.05 378.52-3.05L378.52-3.05Q383.07-3.05 386.97-4.4L386.97-4.4 386.97-15.15 378.22-15.15 378.22-18.35ZM403.12 0L399.02 0 399.02-35.25 403.12-35.25 403.12 0ZM436.22-6.9L436.22-35.25 440.07-35.25 440.07 0 436.92 0 415.67-28.35 415.67 0 411.82 0 411.82-35.25 414.97-35.25 436.22-6.9ZM471.06 0L448.77 0 448.77-35.25 471.06-35.25 471.06-31.85 452.81-31.85 452.81-19.6 470.06-19.6 470.06-16.2 452.81-16.2 452.81-3.4 471.06-3.4 471.06 0ZM500.16 0L477.86 0 477.86-35.25 500.16-35.25 500.16-31.85 481.91-31.85 481.91-19.6 499.16-19.6 499.16-16.2 481.91-16.2 481.91-3.4 500.16-3.4 500.16 0ZM528.56-11.5L534.71 0 530.21 0 524.21-11.3Q523.11-13.35 521.64-14.13 520.16-14.9 517.61-14.9L517.61-14.9 511.01-14.9 511.01 0 506.96 0 506.96-35.25 521.46-35.25Q527.21-35.25 530.24-32.7 533.26-30.15 533.26-25.2L533.26-25.2Q533.26-21.1 530.94-18.57 528.61-16.05 524.31-15.4L524.31-15.4Q525.66-15 526.69-14.05 527.71-13.1 528.56-11.5L528.56-11.5ZM511.01-18.3L521.11-18.3Q525.21-18.3 527.24-20 529.26-21.7 529.26-25.15L529.26-25.15Q529.26-28.55 527.26-30.2 525.26-31.85 521.11-31.85L521.11-31.85 511.01-31.85 511.01-18.3Z" opacity="1" transform="matrix(1,0,0,1,0,0)" fill="#ff908b" class="undefined-text-1" data-fill-palette-color="secondary" id="text-1"></path></svg></g></svg></g></svg></g></svg></g></svg></g><defs></defs></svg><rect width="343.66552524099717" height="280" fill="none" stroke="none" visibility="hidden"></rect></g></svg></g></svg>